# xmcd
# 
# Track frame offsets:
#     150
#     22725
#     34307
#     56123
#     161335
#     205688
#     268704
# 
# Disc length: 4388
# 
# Revision: 0
# Processed by: cddbd v1.5.2PL0 Copyright (c) Steve Scherf et al.
# Submitted via: fre:ac v1.0.17
# 
DISCID=55112207
DTITLE=Sergei Rachmaninov - Vasily Petrenko
DYEAR=0
DGENRE=
TTITLE0=Womens Dance Tempo di Valse
TTITLE1=Intermezzo Allegretto patorale
TTITLE2=Men's Dance - Meno mosso - Tempo I
TTITLE3=Symphony 2 - Largo allegretto moderato
TTITLE4=Symphony 2 Allegro molto - Meno mosso - Tempo I
TTITLE5=Symphony 2 Adagio
TTITLE6=Symphony 2 - Allegro vivace
EXTD=
EXTT0=
EXTT1=
EXTT2=
EXTT3=
EXTT4=
EXTT5=
EXTT6=
PLAYORDER=
